<?xml version="1.0" encoding="UTF-8"?>
<svg version="1.1" xmlns="http://www.w3.org/2000/svg" width="1361" height="1426">
<path d="M0 0 C3.30426227 1.90862164 6.61835746 3.7995298 9.93554688 5.68554688 C22.00897486 12.55391013 34.04216949 19.48697306 46.02905273 26.50561523 C53.69289916 30.98659282 61.39418399 35.39980928 69.10742188 39.79492188 C78.82866693 45.3347812 88.51637056 50.92867119 98.17431641 56.57836914 C108.69826812 62.73258929 119.26122325 68.81862184 129.82519531 74.90380859 C135.2540213 78.03172336 140.68061469 81.16350635 146.10742188 84.29492188 C148.2740777 85.54494066 150.44074437 86.79494066 152.60742188 88.04492188 C313.48242187 180.85742187 313.48242187 180.85742187 607.60742188 350.54492188 C608.68000244 351.16367187 609.75258301 351.78242188 610.85766602 352.41992188 C613.0236815 353.66964007 615.18953447 354.91963996 617.35522461 356.16992188 C622.78055497 359.30156691 628.20864606 362.42822298 633.64257812 365.54492188 C654.83477801 377.71016931 675.993466 389.89476678 696.10742188 403.79492188 C696.8127002 404.28025391 697.51797852 404.76558594 698.24462891 405.265625 C715.73137943 417.33422572 732.83234296 430.11262557 748.52539062 444.45898438 C749.92575023 445.72587551 751.33212595 446.98676095 752.76831055 448.21289062 C758.59772602 453.20287628 764.0483991 458.5497522 769.47045898 463.97265625 C771.03350921 465.53352514 772.60439553 467.08620075 774.17578125 468.63867188 C780.60522631 475.03228666 786.4768776 481.67462501 792.10742188 488.79492188 C793.14302635 490.05038651 794.18167344 491.30335344 795.22460938 492.55273438 C828.00800772 532.35286927 849.17133792 583.19827011 844.64526367 635.35644531 C841.13435744 669.45369718 827.63314923 701.45432852 807.10742188 728.79492188 C806.42897217 729.70443604 806.42897217 729.70443604 805.73681641 730.63232422 C800.07978881 738.16097046 794.04416496 745.24120865 787.60742188 752.11132812 C785.47112765 754.40450646 783.40039422 756.73155448 781.35742188 759.10742188 C776.37958416 764.83016167 770.99796061 769.98375088 765.25195312 774.92773438 C762.95634759 776.92645832 760.72262588 778.98437417 758.48242188 781.04492188 C752.27786439 786.6280821 745.74352873 791.74213857 739.10742188 796.79492188 C738.41003906 797.32746582 737.71265625 797.86000977 736.99414062 798.40869141 C719.49406443 811.70859389 701.11912442 823.76847045 682.10742188 834.79492188 C681.21313477 835.3145752 680.31884766 835.83422852 679.39746094 836.36962891 C664.10968488 845.24230987 648.76062754 854.00857216 633.40855408 862.7693634 C629.30482052 865.11120347 625.20190054 867.45446232 621.09960938 869.79882812 C620.23382767 870.29359398 620.23382767 870.29359398 619.35055542 870.7983551 C616.43918102 872.46217546 613.52790899 874.12617482 610.61669922 875.7902832 C605.3308836 878.81153441 600.04444067 881.83165992 594.75480652 884.84622192 C591.78858793 886.53671262 588.82287068 888.22808123 585.85742188 889.91992188 C585.27447357 890.25247986 584.69152527 890.58503784 584.09091187 890.92767334 C576.00496219 895.54280235 567.95169417 900.21114 559.91992188 904.91992188 C550.83174988 910.24721129 541.66686028 915.42255725 532.4621582 920.54541016 C525.29332981 924.54477367 518.18624157 928.63855068 511.10742188 932.79492188 C502.99323088 937.5592175 494.82932999 942.21904039 486.60742188 946.79492188 C477.45018873 951.89323112 468.37049018 957.10800243 459.32910156 962.40869141 C451.69943378 966.87770922 444.03764702 971.28853819 436.35742188 975.66992188 C435.77310394 976.00328552 435.18878601 976.33664917 434.58676147 976.68011475 C431.61550207 978.37495678 428.64378916 980.06900172 425.671875 981.76269531 C420.39648892 984.76962932 415.1250775 987.78351804 409.85339355 990.79693604 C406.9382353 992.46322117 404.02281525 994.12904815 401.10742188 995.79492188 C399.94075396 996.46158635 398.77408729 997.12825302 397.60742188 997.79492188 C385.94075521 1004.46158854 374.27408854 1011.12825521 362.60742188 1017.79492188 C362.02993195 1018.12491684 361.45244202 1018.4549118 360.85745239 1018.79490662 C359.6906865 1019.46162853 358.52391811 1020.12834606 357.35714722 1020.7950592 C354.44197809 1022.46084472 351.52685241 1024.12670615 348.61181641 1025.79272461 C343.34398993 1028.80332501 338.07584629 1031.81336335 332.80609131 1034.82058716 C320.89166043 1041.61970145 308.98553384 1048.43245361 297.10742188 1055.29492188 C284.64139965 1062.49704981 272.14380943 1069.64321863 259.63964844 1076.77880859 C254.37694267 1079.78225363 249.11625002 1082.78922152 243.85540771 1085.79592896 C240.93949516 1087.4624047 238.0234519 1089.12865169 235.10742188 1090.79492188 C233.94075458 1091.46158745 232.77408792 1092.12825411 231.60742188 1092.79492188 C229.27408854 1094.12825521 226.94075521 1095.46158854 224.60742188 1096.79492188 C224.02993195 1097.12491684 223.45244202 1097.4549118 222.85745239 1097.79490662 C221.6906865 1098.46162853 220.52391811 1099.12834606 219.35714722 1099.7950592 C216.44197809 1101.46084472 213.52685241 1103.12670615 210.61181641 1104.79272461 C205.34398993 1107.80332501 200.07584629 1110.81336335 194.80609131 1113.82058716 C182.89166043 1120.61970145 170.98553384 1127.43245361 159.10742188 1134.29492188 C146.64139965 1141.49704981 134.14380943 1148.64321863 121.63964844 1155.77880859 C116.37694267 1158.78225363 111.11625002 1161.78922152 105.85540771 1164.79592896 C102.93949516 1166.4624047 100.0234519 1168.12865169 97.10742188 1169.79492188 C95.94075458 1170.46158745 94.77408792 1171.12825411 93.60742188 1171.79492188 C91.27408854 1173.12825521 88.94075521 1174.46158854 86.60742188 1175.79492188 C85.74118698 1176.28991432 85.74118698 1176.28991432 84.85745239 1176.79490662 C83.6906865 1177.46162853 82.52391811 1178.12834606 81.35714722 1178.7950592 C78.44197809 1180.46084472 75.52685241 1182.12670615 72.61181641 1183.79272461 C67.34401567 1186.8033103 62.0758997 1189.8133373 56.8061676 1192.82054138 C53.86470485 1194.49912645 50.92349615 1196.17815626 47.98242188 1197.85742188 C47.4033609 1198.18803619 46.82429993 1198.51865051 46.22769165 1198.85928345 C37.73576551 1203.70895655 29.26122221 1208.58815771 20.79492188 1213.48242188 C8.94098345 1220.32857058 -2.93921946 1227.12365823 -14.89257812 1233.79492188 C-15.86404785 1234.33890625 -16.83551758 1234.88289063 -17.83642578 1235.44335938 C-34.07034306 1244.50266674 -50.60426285 1252.91386916 -67.89257812 1259.79492188 C-67.21006485 1259.77347422 -66.52755157 1259.75202656 -65.82435608 1259.72992897 C-44.51445313 1259.06148411 -23.20387873 1258.41718269 -1.89257812 1257.79492188 C-0.86445385 1257.76483315 -0.86445385 1257.76483315 0.18444061 1257.73413658 C21.15685227 1257.1210496 42.13056784 1256.60143522 63.10742188 1256.16992188 C63.88961436 1256.15378058 64.67180685 1256.13763929 65.47770214 1256.12100887 C149.05153337 1254.40631037 232.64455041 1254.4221598 316.23242188 1254.41992188 C317.09400056 1254.41989125 317.95557924 1254.41986062 318.84326637 1254.41982907 C405.60245532 1254.4182699 492.35461558 1254.52014219 622.4980793 1257.53200531 C629.51724481 1257.72743985 636.53654878 1257.90438993 643.55664062 1258.06298828 C663.96671223 1258.52709132 684.35132064 1259.23844399 704.74414062 1260.19598389 C710.43065206 1260.46221064 716.1174903 1260.72141626 721.80433655 1260.9803772 C723.19638833 1261.04387895 724.58842751 1261.10765748 725.98045349 1261.17172241 C736.91411653 1261.67437671 747.84939511 1262.09619228 758.78973389 1262.42785645 C765.01206375 1262.62954847 771.18924752 1263.00040686 777.38928223 1263.56861877 C782.03849832 1263.95569676 786.69569565 1264.07995363 791.35742188 1264.23242188 C811.40264112 1264.96820869 831.42237616 1266.30705366 851.41992188 1267.85742188 C852.46341797 1267.93661865 853.50691406 1268.01581543 854.58203125 1268.09741211 C855.53529297 1268.17419189 856.48855469 1268.25097168 857.47070312 1268.33007812 C858.29868408 1268.39590088 859.12666504 1268.46172363 859.97973633 1268.52954102 C862.10742188 1268.79492188 862.10742188 1268.79492188 865.10742188 1269.79492188 C867.38903716 1270.01399294 869.67535941 1270.18529767 871.96289062 1270.33007812 C872.62452713 1270.37305527 873.28616364 1270.41603241 873.96784973 1270.46031189 C876.07665357 1270.59642852 878.18575921 1270.72699535 880.29492188 1270.85742188 C881.72658591 1270.94885289 883.1582269 1271.04064551 884.58984375 1271.1328125 C888.09544565 1271.35770897 891.60133945 1271.57763016 895.10742188 1271.79492188 C895.10742188 1272.45492188 895.10742188 1273.11492187 895.10742188 1273.79492188 C900.38742187 1273.79492188 905.66742187 1273.79492188 911.10742188 1273.79492188 C911.10742188 1274.45492188 911.10742188 1275.11492187 911.10742188 1275.79492188 C914.40742187 1275.79492188 917.70742187 1275.79492188 921.10742188 1275.79492188 C921.10742188 1276.45492188 921.10742188 1277.11492187 921.10742188 1277.79492188 C924.73742188 1277.79492188 928.36742187 1277.79492188 932.10742188 1277.79492188 C932.10742188 1278.45492188 932.10742188 1279.11492187 932.10742188 1279.79492188 C935.73742188 1280.12492187 939.36742187 1280.45492188 943.10742188 1280.79492188 C943.10742188 1281.45492188 943.10742188 1282.11492187 943.10742188 1282.79492188 C944.09742188 1282.79492188 945.08742188 1282.79492188 946.10742188 1282.79492188 C946.10742188 1283.45492188 946.10742188 1284.11492187 946.10742188 1284.79492188 C947.09742188 1284.79492188 948.08742188 1284.79492188 949.10742188 1284.79492188 C949.10742188 1285.45492188 949.10742188 1286.11492187 949.10742188 1286.79492188 C950.75742188 1287.12492187 952.40742187 1287.45492188 954.10742188 1287.79492188 C954.43742187 1289.77492188 954.76742188 1291.75492188 955.10742188 1293.79492188 C955.76742188 1293.79492188 956.42742187 1293.79492188 957.10742188 1293.79492188 C958.22998319 1296.0400445 958.2415595 1297.30948837 958.23242188 1299.79492188 C958.235 1300.49617188 958.23757813 1301.19742187 958.24023438 1301.91992188 C958.10742188 1303.79492187 958.10742188 1303.79492187 957.10742188 1305.79492188 C956.44742187 1305.79492188 955.78742188 1305.79492188 955.10742188 1305.79492188 C954.77742188 1307.77492188 954.44742187 1309.75492188 954.10742188 1311.79492188 C952.45742187 1312.12492187 950.80742188 1312.45492188 949.10742188 1312.79492188 C949.10742188 1313.45492188 949.10742188 1314.11492187 949.10742188 1314.79492188 C948.11742187 1314.79492188 947.12742187 1314.79492188 946.10742188 1314.79492188 C946.10742188 1315.45492188 946.10742188 1316.11492187 946.10742188 1316.79492188 C945.11742187 1316.79492188 944.12742187 1316.79492188 943.10742188 1316.79492188 C943.10742188 1317.45492188 943.10742188 1318.11492187 943.10742188 1318.79492188 C939.47742187 1319.12492187 935.84742188 1319.45492188 932.10742188 1319.79492188 C932.10742188 1320.45492188 932.10742188 1321.11492187 932.10742188 1321.79492188 C928.47742187 1321.79492188 924.84742188 1321.79492188 921.10742188 1321.79492188 C921.10742188 1322.45492188 921.10742188 1323.11492187 921.10742188 1323.79492188 C917.80742188 1323.79492188 914.50742188 1323.79492188 911.10742188 1323.79492188 C911.10742188 1324.45492188 911.10742188 1325.11492187 911.10742188 1325.79492188 C905.82742188 1325.79492188 900.54742188 1325.79492188 895.10742188 1325.79492188 C895.10742188 1326.45492188 895.10742188 1327.11492187 895.10742188 1327.79492188 C893.76780396 1327.87794556 893.76780396 1327.87794556 892.40112305 1327.96264648 C889.08547526 1328.17004982 885.7700968 1328.38104698 882.45483398 1328.59448242 C881.020355 1328.68609321 879.58578393 1328.77627359 878.15112305 1328.86499023 C876.08811939 1328.9928122 874.02550246 1329.12578698 871.96289062 1329.25976562 C870.72176514 1329.33831787 869.48063965 1329.41687012 868.2019043 1329.49780273 C865.07431916 1329.68145137 865.07431916 1329.68145137 862.10742188 1330.79492188 C860.56604469 1330.98717397 859.01913832 1331.13666827 857.47070312 1331.25976562 C856.51744141 1331.33654541 855.56417969 1331.4133252 854.58203125 1331.49243164 C853.53853516 1331.57162842 852.49503906 1331.6508252 851.41992188 1331.73242188 C850.32357422 1331.81741943 849.22722656 1331.90241699 848.09765625 1331.98999023 C828.22960334 1333.49837769 808.33993322 1334.80198521 788.42382812 1335.45336914 C783.86573827 1335.60872245 779.34105658 1335.84419629 774.79931641 1336.26538086 C767.04956628 1336.92343937 759.2911329 1337.21447058 751.52148438 1337.51367188 C749.93223107 1337.57686335 748.34298767 1337.64030459 746.75375366 1337.70397949 C742.58999122 1337.87022691 738.42611761 1338.03349422 734.26220703 1338.19598389 C727.63765946 1338.45506494 721.01330665 1338.71909346 714.38892746 1338.98243713 C712.11752015 1339.07236951 709.84607392 1339.16124773 707.57461548 1339.24987793 C706.11891289 1339.30711009 704.66321424 1339.36444256 703.20751953 1339.421875 C702.47607349 1339.45056168 701.74462746 1339.47924835 700.99101639 1339.50880432 C697.06039169 1339.6659544 693.13126215 1339.83999692 689.2024231 1340.0369873 C673.75599613 1340.80364578 658.30603679 1341.15853535 642.84506273 1341.46917152 C639.07166703 1341.54554698 635.29833526 1341.62497348 631.5249939 1341.70397949 C625.15927695 1341.83684603 618.79352164 1341.96771649 612.42773438 1342.09716797 C604.45229267 1342.25936005 596.47691962 1342.42469067 588.50156593 1342.59114838 C581.4436964 1342.73843487 574.38579656 1342.88425165 567.32789183 1343.02984047 C565.16488757 1343.07450141 563.0018867 1343.11932378 560.83888626 1343.16416931 C552.84476194 1343.32953218 544.85054565 1343.48901573 536.85618728 1343.6426599 C532.29619315 1343.73086384 527.7363172 1343.82326376 523.17650414 1343.92040253 C485.21974236 1344.72688676 447.2761576 1344.97123659 409.31278276 1344.99479461 C404.52256512 1344.99787819 399.73235048 1345.00287999 394.94213486 1345.00818825 C373.50903697 1345.03154095 352.07595208 1345.04142155 330.64284222 1345.04380086 C324.42979842 1345.04452851 318.21675523 1345.04610226 312.0037117 1345.04804611 C142.76840512 1345.09876826 142.76840512 1345.09876826 61.54492188 1343.35742188 C60.3579363 1343.33204818 60.3579363 1343.33204818 59.14697123 1343.30616188 C42.06998506 1342.93965909 24.99461937 1342.52543023 7.920084 1342.05783653 C0.73736194 1341.86183194 -6.4454978 1341.68500128 -13.62915039 1341.52685547 C-34.3002724 1341.06893068 -54.94470057 1340.36676071 -75.59796143 1339.39385986 C-81.27481748 1339.1273076 -86.95203002 1338.8683943 -92.62923813 1338.60946655 C-94.01724592 1338.54601061 -95.40523905 1338.48223308 -96.79321671 1338.41812134 C-107.8045617 1337.90981873 -118.81697928 1337.48853027 -129.83540344 1337.1619873 C-135.23566151 1336.98858699 -140.54923928 1336.67598758 -145.91218567 1336.0189209 C-148.79870277 1335.69243157 -151.6774391 1335.59595416 -154.58007812 1335.51367188 C-156.37058594 1335.45759766 -156.37058594 1335.45759766 -158.19726562 1335.40039062 C-159.41671875 1335.36558594 -160.63617188 1335.33078125 -161.89257812 1335.29492188 C-168.84096368 1335.09660643 -175.71768025 1334.89275233 -182.61767578 1334.03125 C-188.47474645 1333.42278848 -194.39097049 1333.38373644 -200.2734375 1333.18945312 C-205.24627801 1333.007711 -209.98894795 1332.67895661 -214.89257812 1331.79492188 C-218.3398478 1331.55134639 -221.78308365 1331.35841934 -225.234375 1331.18945312 C-228.33239474 1331.02041724 -230.93261979 1330.78157465 -233.89257812 1329.79492188 C-236.24717373 1329.57535687 -238.60640601 1329.40427935 -240.96679688 1329.25976562 C-241.65062943 1329.21678848 -242.33446198 1329.17381134 -243.03901672 1329.12953186 C-245.21915591 1328.99338506 -247.39958909 1328.86283332 -249.58007812 1328.73242188 C-251.05991866 1328.64099378 -252.53973673 1328.54920121 -254.01953125 1328.45703125 C-257.6436292 1328.23210118 -261.26801168 1328.01218714 -264.89257812 1327.79492188 C-264.89257812 1327.13492187 -264.89257812 1326.47492188 -264.89257812 1325.79492188 C-269.84257812 1325.79492188 -274.79257812 1325.79492188 -279.89257812 1325.79492188 C-279.89257812 1325.13492187 -279.89257812 1324.47492188 -279.89257812 1323.79492188 C-284.18257813 1323.79492188 -288.47257812 1323.79492188 -292.89257812 1323.79492188 C-292.89257812 1323.13492187 -292.89257812 1322.47492188 -292.89257812 1321.79492188 C-295.20257813 1321.79492188 -297.51257813 1321.79492188 -299.89257812 1321.79492188 C-299.89257812 1321.13492187 -299.89257812 1320.47492188 -299.89257812 1319.79492188 C-300.50746094 1319.80652344 -301.12234375 1319.818125 -301.75585938 1319.83007812 C-302.96822266 1319.84361328 -302.96822266 1319.84361328 -304.20507812 1319.85742188 C-305.00558594 1319.86902344 -305.80609375 1319.880625 -306.63085938 1319.89257812 C-308.89257812 1319.79492188 -308.89257812 1319.79492188 -311.89257812 1318.79492188 C-311.89257812 1318.13492187 -311.89257812 1317.47492188 -311.89257812 1316.79492188 C-313.21257812 1316.79492188 -314.53257812 1316.79492188 -315.89257812 1316.79492188 C-315.89257812 1316.13492187 -315.89257812 1315.47492188 -315.89257812 1314.79492188 C-316.88257813 1314.79492188 -317.87257813 1314.79492188 -318.89257812 1314.79492188 C-318.89257812 1314.13492187 -318.89257812 1313.47492188 -318.89257812 1312.79492188 C-320.54257812 1312.46492188 -322.19257813 1312.13492187 -323.89257812 1311.79492188 C-324.22257812 1310.47492188 -324.55257812 1309.15492187 -324.89257812 1307.79492188 C-325.55257812 1307.79492188 -326.21257812 1307.79492188 -326.89257812 1307.79492188 C-328.5602729 1302.79183755 -328.5602729 1296.7980062 -326.89257812 1291.79492188 C-326.23257813 1291.79492188 -325.57257813 1291.79492188 -324.89257812 1291.79492188 C-324.56257813 1290.47492188 -324.23257813 1289.15492187 -323.89257812 1287.79492188 C-322.24257813 1287.46492188 -320.59257812 1287.13492187 -318.89257812 1286.79492188 C-318.89257812 1286.13492187 -318.89257812 1285.47492188 -318.89257812 1284.79492188 C-317.90257812 1284.79492188 -316.91257812 1284.79492188 -315.89257812 1284.79492188 C-315.89257812 1284.13492187 -315.89257812 1283.47492188 -315.89257812 1282.79492188 C-314.57257813 1282.79492188 -313.25257813 1282.79492188 -311.89257812 1282.79492188 C-311.89257812 1282.13492187 -311.89257812 1281.47492188 -311.89257812 1280.79492188 C-309.0104651 1279.83421753 -307.19407769 1279.68910304 -304.20507812 1279.73242188 C-303.39683594 1279.74144531 -302.58859375 1279.75046875 -301.75585938 1279.75976562 C-301.14097656 1279.77136719 -300.52609375 1279.78296875 -299.89257812 1279.79492188 C-299.89257812 1279.13492187 -299.89257812 1278.47492188 -299.89257812 1277.79492188 C-297.58257812 1277.79492188 -295.27257812 1277.79492188 -292.89257812 1277.79492188 C-292.89257812 1277.13492187 -292.89257812 1276.47492188 -292.89257812 1275.79492188 C-288.60257812 1275.79492188 -284.31257813 1275.79492188 -279.89257812 1275.79492188 C-279.89257812 1275.13492187 -279.89257812 1274.47492188 -279.89257812 1273.79492188 C-274.94257813 1273.79492188 -269.99257813 1273.79492188 -264.89257812 1273.79492188 C-264.89257812 1273.13492187 -264.89257812 1272.47492188 -264.89257812 1271.79492188 C-261.92257812 1271.46492188 -258.95257813 1271.13492187 -255.89257812 1270.79492188 C-256.5713501 1270.48377441 -257.25012207 1270.17262695 -257.94946289 1269.85205078 C-271.28071578 1263.70263663 -284.08363432 1257.55582928 -295.89257812 1248.79492188 C-296.70251221 1248.21967773 -296.70251221 1248.21967773 -297.52880859 1247.6328125 C-321.41662917 1230.66044846 -340.80534884 1207.35194608 -354.89257812 1181.79492188 C-355.30926758 1181.05822266 -355.72595703 1180.32152344 -356.15527344 1179.5625 C-384.77691132 1128.74917644 -395.60742232 1069.91987507 -395.40024698 1012.16044117 C-395.38900167 1007.75151105 -395.40141782 1003.3426284 -395.41055447 998.93370199 C-395.42335147 991.23827099 -395.42158193 983.54295567 -395.40977478 975.84752464 C-395.39226489 964.40345664 -395.39793837 952.95947819 -395.40794169 941.51540531 C-395.42506888 921.06694862 -395.41963411 900.61854581 -395.4045845 880.17009027 C-395.39149973 862.2746183 -395.3863431 844.37916497 -395.38890266 826.48368835 C-395.38906308 825.29368701 -395.3892235 824.10368567 -395.38938877 822.87762369 C-395.39005243 818.04624481 -395.39075485 813.21486594 -395.39151411 808.38348708 C-395.39852809 763.12053521 -395.3830807 717.85761611 -395.35689065 672.59467258 C-395.33377799 632.43761649 -395.32838851 592.28059641 -395.33862305 552.12353516 C-395.34122535 541.83841707 -395.34381046 531.55329898 -395.34622097 521.26818085 C-395.34651842 520.00170679 -395.34681587 518.73523273 -395.34712233 517.43038067 C-395.35474814 483.81122136 -395.34831525 450.19206497 -395.33752495 416.57290697 C-395.33637722 412.952678 -395.33523404 409.33244903 -395.33409813 405.71222006 C-395.33334288 403.310965 -395.33257724 400.90970995 -395.33180112 398.5084549 C-395.32615787 380.63028254 -395.32746252 362.75211953 -395.33202934 344.87394714 C-395.33715171 324.53262943 -395.33121991 304.19134652 -395.31113505 283.85003746 C-395.30020008 272.4850743 -395.2973075 261.12017962 -395.30642358 249.75521447 C-395.31168272 242.14241267 -395.30584331 234.52966893 -395.29137023 226.91687928 C-395.2834451 222.59389597 -395.2799066 218.27104996 -395.28994279 213.94806784 C-395.45252147 137.61320141 -378.18121633 61.54949721 -323.08007812 5.66992188 C-316.46825191 -0.90394689 -309.43978033 -6.73971887 -301.89257812 -12.20507812 C-301.31991211 -12.62208984 -300.74724609 -13.03910156 -300.15722656 -13.46875 C-216.78838921 -73.41201948 -102.43797736 -55.58885831 0 0 Z M-120.89257812 332.79492188 C-121.81425781 333.52195312 -122.7359375 334.24898438 -123.68554688 334.99804688 C-133.63425691 342.97998451 -142.97669637 351.67843278 -151.89257812 360.79492188 C-154.40133722 363.31614169 -156.92115379 365.8227182 -159.47070312 368.30273438 C-165.76494719 374.46814888 -171.41152913 380.88442987 -176.89257812 387.79492188 C-177.77819413 388.85812755 -178.66632743 389.9192402 -179.55664062 390.97851562 C-193.09658607 407.24501392 -204.63565318 425.30220305 -214.89257812 443.79492188 C-215.31812988 444.5517627 -215.74368164 445.30860352 -216.18212891 446.08837891 C-262.52484094 529.05923519 -272.88469283 630.8109148 -247.98583984 722.12011719 C-238.59449585 755.13359108 -225.49249308 786.3229381 -207.89257812 815.79492188 C-207.38581543 816.6445752 -206.87905273 817.49422852 -206.35693359 818.36962891 C-199.28346231 830.12343026 -191.41732786 841.05698755 -182.89257812 851.79492188 C-182.17457031 852.7153125 -181.4565625 853.63570312 -180.71679688 854.58398438 C-178.80543598 857.0137475 -176.85635493 859.40736279 -174.89257812 861.79492188 C-174.13074219 862.74238281 -173.36890625 863.68984375 -172.58398438 864.66601562 C-165.80660029 872.93391463 -158.36536283 880.53709607 -150.83007812 888.10742188 C-150.07029663 888.87496796 -150.07029663 888.87496796 -149.29516602 889.65802002 C-142.49777984 896.51008202 -135.45562997 902.77979487 -127.89257812 908.79492188 C-126.86501755 909.65829759 -125.84161748 910.52670439 -124.82617188 911.40429688 C-55.53723313 970.82579677 39.84915835 998.61370468 130.16992188 992.04492188 C213.36459293 985.17934222 288.69714371 950.81999103 350.10742188 894.79492188 C351.11996502 893.88683687 352.13300906 892.97931015 353.14648438 892.07226562 C358.11718781 887.60256957 362.9277963 883.12382201 367.22460938 877.98632812 C369.14974122 875.74566637 371.168259 873.61053523 373.20483398 871.47143555 C380.20711416 864.07298993 386.41203491 856.1948128 392.46630859 848.00976562 C394.08558065 845.82439876 395.7227835 843.65335806 397.36132812 841.48242188 C434.96582205 791.13198369 457.27928391 729.84847965 465.10742188 667.79492188 C465.22456543 666.91578125 465.34170898 666.03664063 465.46240234 665.13085938 C474.16978082 597.43843116 461.0765266 526.1815942 432.10742188 464.79492188 C431.65608887 463.83714844 431.20475586 462.879375 430.73974609 461.89257812 C419.13933811 437.51290988 404.88973654 414.92314539 388.10742188 393.79492188 C386.98207031 392.37759766 386.98207031 392.37759766 385.83398438 390.93164062 C381.22774019 385.21828161 376.41017382 379.7440127 371.43945312 374.34570312 C369.47243159 372.19417036 367.56189058 370.01200215 365.66992188 367.79492188 C358.75776311 359.85572066 351.12196825 352.60520999 343.10742188 345.79492188 C342.09213823 344.90539223 341.0779058 344.01466201 340.06445312 343.12304688 C325.94783888 330.76514364 310.88601527 319.92887202 295.10742188 309.79492188 C294.50704102 309.40771973 293.90666016 309.02051758 293.28808594 308.62158203 C207.3774116 253.75198516 99.74503395 241.2065127 -120.89257812 332.79492188 Z " fill="#76A149" transform="translate(394.892578125,51.205078125)"/>
<path d="M0 0 C19.9897558 9.27716061 37.57677037 22.05293202 53.7734375 36.95703125 C55.81427926 38.82959308 57.89463697 40.63829534 60 42.4375 C127.82392744 101.62929122 163.32297236 201.51442545 178 313 C178.11859375 314.1751416 178.2371875 315.3502832 178.359375 316.56103516 C180.01725477 333.8774907 180.20071546 351.17994035 180.25 368.5625 C180.25535767 369.61855438 180.26071533 370.67460876 180.26623535 371.76266479 C180.3429116 391.66925177 178.83013521 411.08493704 175.375 430.6875 C175.184254 431.78461807 175.184254 431.78461807 174.98965454 432.90390015 C167.58000074 475.25993431 155.75632398 517.01475251 138.49609375 556.4375 C136.95368855 559.67549765 136.95368855 559.67549765 136.72900391 562.02392578 C135.61315443 565.04860281 133.64113072 565.68755401 130.83984375 567.1796875 C129.74833008 567.77152832 128.65681641 568.36336914 127.53222656 568.97314453 C126.65443542 569.43747894 126.65443542 569.43747894 125.75891113 569.91119385 C122.65195168 571.55525244 119.568424 573.24248174 116.48046875 574.921875 C115.84968414 575.26320465 115.21889954 575.6045343 114.56900024 575.95620728 C108.55388558 579.21815917 102.6443799 582.64999535 96.75 586.125 C89.03958156 590.6562111 81.29630032 595.11815233 73.5 599.5 C65.66361241 603.90504225 57.87863585 608.38843073 50.125 612.9375 C40.93342481 618.32813772 31.66665367 623.56806904 22.35595703 628.74975586 C15.18676462 632.74943994 8.07922924 636.84338833 1 641 C-7.11419099 645.76429563 -15.27809188 650.42411851 -23.5 655 C-32.65723315 660.09830924 -41.7369317 665.31308055 -50.77832031 670.61376953 C-58.4079881 675.08278735 -66.06977486 679.49361631 -73.75 683.875 C-74.33431793 684.20836365 -74.91863586 684.54172729 -75.5206604 684.88519287 C-78.4919198 686.5800349 -81.46363272 688.27407984 -84.43554688 689.96777344 C-89.71093295 692.97470744 -94.98234438 695.98859617 -100.25402832 699.00201416 C-103.16918658 700.6682993 -106.08460663 702.33412627 -109 704 C-110.16666792 704.66666448 -111.33333459 705.33333114 -112.5 706 C-124.16666667 712.66666667 -135.83333333 719.33333333 -147.5 726 C-148.07748993 726.32999496 -148.65497986 726.65998993 -149.24996948 726.99998474 C-150.41673537 727.66670665 -151.58350376 728.33342418 -152.75027466 729.00013733 C-155.66544378 730.66592284 -158.58056947 732.33178427 -161.49560547 733.99780273 C-166.76343195 737.00840313 -172.03157559 740.01844147 -177.30133057 743.02566528 C-189.21576145 749.82477958 -201.12188804 756.63753173 -213 763.5 C-225.46602223 770.70212794 -237.96361244 777.84829676 -250.46777344 784.98388672 C-255.7304792 787.98733176 -260.99117186 790.99429965 -266.25201416 794.00100708 C-269.16792672 795.66748282 -272.08396998 797.33372982 -275 799 C-276.16666729 799.66666557 -277.33333396 800.33333224 -278.5 801 C-280.83333333 802.33333333 -283.16666667 803.66666667 -285.5 805 C-286.07748993 805.32999496 -286.65497986 805.65998993 -287.24996948 805.99998474 C-288.41673537 806.66670665 -289.58350376 807.33342418 -290.75027466 808.00013733 C-293.66544378 809.66592284 -296.58056947 811.33178427 -299.49560547 812.99780273 C-304.7634062 816.00838842 -310.03152218 819.01841542 -315.30125427 822.02561951 C-318.24271702 823.70420458 -321.18392572 825.38323438 -324.125 827.0625 C-324.70406097 827.39311432 -325.28312195 827.72372864 -325.87973022 828.06436157 C-334.37165636 832.91403467 -342.84619966 837.79323584 -351.3125 842.6875 C-363.16643842 849.5336487 -375.04664134 856.32873636 -387 863 C-387.97146973 863.54398438 -388.94293945 864.08796875 -389.94384766 864.6484375 C-406.17776493 873.70774487 -422.71168472 882.11894729 -440 889 C-439.31748672 888.97855234 -438.63497345 888.95710468 -437.93177795 888.9350071 C-416.62187501 888.26656223 -395.3113006 887.62226081 -374 887 C-373.31458382 886.97994085 -372.62916763 886.95988171 -371.92298126 886.93921471 C-350.9505696 886.32612773 -329.97685404 885.80651334 -309 885.375 C-308.21780751 885.35885871 -307.43561502 885.34271742 -306.62971973 885.326087 C-223.05588851 883.61138849 -139.46287146 883.62723793 -55.875 883.625 C-55.01342132 883.62496937 -54.15184263 883.62493875 -53.26415551 883.6249072 C33.49503345 883.62334802 120.2471937 883.72522032 250.39065742 886.73708344 C257.40982294 886.93251798 264.4291269 887.10946805 271.44921875 887.26806641 C291.85929035 887.73216944 312.24389876 888.44352212 332.63671875 889.40106201 C338.32323019 889.66728876 344.01006842 889.92649438 349.69691467 890.18545532 C351.08896645 890.24895707 352.48100564 890.31273561 353.87303162 890.37680054 C364.80669466 890.87945484 375.74197324 891.3012704 386.68231201 891.63293457 C392.90464188 891.83462659 399.08182564 892.20548499 405.28186035 892.7736969 C409.93107644 893.16077488 414.58827378 893.28503176 419.25 893.4375 C439.29521924 894.17328682 459.31495429 895.51213178 479.3125 897.0625 C480.35599609 897.14169678 481.39949219 897.22089355 482.47460938 897.30249023 C483.42787109 897.37927002 484.38113281 897.4560498 485.36328125 897.53515625 C486.19126221 897.600979 487.01924316 897.66680176 487.87231445 897.73461914 C490 898 490 898 493 899 C495.28161529 899.21907107 497.56793753 899.39037579 499.85546875 899.53515625 C500.51710526 899.57813339 501.17874176 899.62111053 501.86042786 899.66539001 C503.9692317 899.80150665 506.07833734 899.93207347 508.1875 900.0625 C509.61916404 900.15393101 511.05080503 900.24572364 512.48242188 900.33789062 C515.98802377 900.56278709 519.49391758 900.78270829 523 901 C523 901.66 523 902.32 523 903 C528.28 903 533.56 903 539 903 C539 903.66 539 904.32 539 905 C542.3 905 545.6 905 549 905 C549 905.66 549 906.32 549 907 C552.63 907 556.26 907 560 907 C560 907.66 560 908.32 560 909 C563.63 909.33 567.26 909.66 571 910 C571 910.66 571 911.32 571 912 C571.99 912 572.98 912 574 912 C574 912.66 574 913.32 574 914 C574.99 914 575.98 914 577 914 C577 914.66 577 915.32 577 916 C578.65 916.33 580.3 916.66 582 917 C582.33 918.98 582.66 920.96 583 923 C583.66 923 584.32 923 585 923 C586.12256131 925.24512262 586.13413762 926.51456649 586.125 929 C586.12757812 929.70125 586.13015625 930.4025 586.1328125 931.125 C586 933 586 933 585 935 C584.34 935 583.68 935 583 935 C582.67 936.98 582.34 938.96 582 941 C580.35 941.33 578.7 941.66 577 942 C577 942.66 577 943.32 577 944 C576.01 944 575.02 944 574 944 C574 944.66 574 945.32 574 946 C573.01 946 572.02 946 571 946 C571 946.66 571 947.32 571 948 C567.37 948.33 563.74 948.66 560 949 C560 949.66 560 950.32 560 951 C556.37 951 552.74 951 549 951 C549 951.66 549 952.32 549 953 C545.7 953 542.4 953 539 953 C539 953.66 539 954.32 539 955 C533.72 955 528.44 955 523 955 C523 955.66 523 956.32 523 957 C521.66038208 957.08302368 521.66038208 957.08302368 520.29370117 957.16772461 C516.97805339 957.37512795 513.66267492 957.5861251 510.34741211 957.79956055 C508.91293313 957.89117133 507.47836205 957.98135171 506.04370117 958.07006836 C503.98069752 958.19789032 501.91808058 958.33086511 499.85546875 958.46484375 C498.61434326 958.543396 497.37321777 958.62194824 496.09448242 958.70288086 C492.96689729 958.88652949 492.96689729 958.88652949 490 960 C488.45862281 960.19225209 486.91171644 960.34174639 485.36328125 960.46484375 C484.41001953 960.54162354 483.45675781 960.61840332 482.47460938 960.69750977 C481.43111328 960.77670654 480.38761719 960.85590332 479.3125 960.9375 C477.66797852 961.06499634 477.66797852 961.06499634 475.99023438 961.19506836 C456.12218147 962.70345581 436.23251134 964.00706334 416.31640625 964.65844727 C411.7583164 964.81380057 407.2336347 965.04927441 402.69189453 965.47045898 C394.9421444 966.12851749 387.18371102 966.41954871 379.4140625 966.71875 C377.82480919 966.78194148 376.2355658 966.84538272 374.64633179 966.90905762 C370.48256934 967.07530503 366.31869574 967.23857235 362.15478516 967.40106201 C355.53023759 967.66014307 348.90588478 967.92417158 342.28150558 968.18751526 C340.01009827 968.27744763 337.73865205 968.36632586 335.4671936 968.45495605 C334.01149101 968.51218822 332.55579236 968.56952069 331.10009766 968.62695312 C330.36865162 968.6556398 329.63720558 968.68432648 328.88359451 968.71388245 C324.95296982 968.87103252 321.02384028 969.04507504 317.09500122 969.24206543 C301.64857426 970.00872391 286.19861491 970.36361347 270.73764086 970.67424965 C266.96424516 970.75062511 263.19091339 970.8300516 259.41757202 970.90905762 C253.05185508 971.04192416 246.68609977 971.17279462 240.3203125 971.30224609 C232.34487079 971.46443817 224.36949775 971.6297688 216.39414406 971.7962265 C209.33627452 971.943513 202.27837468 972.08932977 195.22046995 972.23491859 C193.05746569 972.27957954 190.89446483 972.32440191 188.73146439 972.36924744 C180.73734007 972.53461031 172.74312378 972.69409386 164.74876541 972.84773803 C160.18877128 972.93594196 155.62889532 973.02834188 151.06908226 973.12548065 C113.11232048 973.93196488 75.16873572 974.17631471 37.20536089 974.19987273 C32.41514324 974.20295632 27.62492861 974.20795811 22.83471298 974.21326637 C1.40161509 974.23661907 -20.0314698 974.24649968 -41.46457966 974.24887899 C-47.67762346 974.24960663 -53.89066665 974.25118038 -60.10371017 974.25312424 C-229.33901675 974.30384638 -229.33901675 974.30384638 -310.5625 972.5625 C-311.74948557 972.5371263 -311.74948557 972.5371263 -312.96045065 972.51124001 C-330.03743682 972.14473721 -347.1128025 971.73050836 -364.18733788 971.26291466 C-371.37005993 971.06691007 -378.55291967 970.8900794 -385.73657227 970.73193359 C-406.40769428 970.27400881 -427.05212245 969.57183884 -447.7053833 968.59893799 C-453.38223935 968.33238573 -459.0594519 968.07347242 -464.73666 967.81454468 C-466.1246678 967.75108873 -467.51266093 967.6873112 -468.90063858 967.62319946 C-479.91198357 967.11489685 -490.92440115 966.6936084 -501.94282532 966.36706543 C-507.34308339 966.19366511 -512.65666116 965.8810657 -518.01960754 965.22399902 C-520.90612465 964.89750969 -523.78486098 964.80103229 -526.6875 964.71875 C-528.47800781 964.66267578 -528.47800781 964.66267578 -530.3046875 964.60546875 C-532.13386719 964.55326172 -532.13386719 964.55326172 -534 964.5 C-540.94838555 964.30168456 -547.82510212 964.09783046 -554.72509766 963.23632812 C-560.58216833 962.62786661 -566.49839236 962.58881456 -572.38085938 962.39453125 C-577.35369989 962.21278913 -582.09636982 961.88403474 -587 961 C-590.44726967 960.75642452 -593.89050553 960.56349746 -597.34179688 960.39453125 C-600.43981661 960.22549537 -603.04004167 959.98665278 -606 959 C-608.3545956 958.780435 -610.71382789 958.60935748 -613.07421875 958.46484375 C-613.7580513 958.42186661 -614.44188385 958.37888947 -615.1464386 958.33460999 C-617.32657778 958.19846319 -619.50701096 958.06791145 -621.6875 957.9375 C-623.16734054 957.84607191 -624.64715861 957.75427934 -626.12695312 957.66210938 C-629.75105107 957.43717931 -633.37543355 957.21726526 -637 957 C-637 956.34 -637 955.68 -637 955 C-641.95 955 -646.9 955 -652 955 C-652 954.34 -652 953.68 -652 953 C-656.29 953 -660.58 953 -665 953 C-665 952.34 -665 951.68 -665 951 C-667.31 951 -669.62 951 -672 951 C-672 950.34 -672 949.68 -672 949 C-672.61488281 949.01160156 -673.22976563 949.02320313 -673.86328125 949.03515625 C-675.07564453 949.04869141 -675.07564453 949.04869141 -676.3125 949.0625 C-677.11300781 949.07410156 -677.91351562 949.08570313 -678.73828125 949.09765625 C-681 949 -681 949 -684 948 C-684 947.34 -684 946.68 -684 946 C-685.32 946 -686.64 946 -688 946 C-688 945.34 -688 944.68 -688 944 C-688.99 944 -689.98 944 -691 944 C-691 943.34 -691 942.68 -691 942 C-692.65 941.67 -694.3 941.34 -696 941 C-696.33 939.68 -696.66 938.36 -697 937 C-697.66 937 -698.32 937 -699 937 C-700.66769477 931.99691568 -700.66769477 926.00308432 -699 921 C-698.34 921 -697.68 921 -697 921 C-696.67 919.68 -696.34 918.36 -696 917 C-694.35 916.67 -692.7 916.34 -691 916 C-691 915.34 -691 914.68 -691 914 C-690.01 914 -689.02 914 -688 914 C-688 913.34 -688 912.68 -688 912 C-686.68 912 -685.36 912 -684 912 C-684 911.34 -684 910.68 -684 910 C-681.11788698 909.03929566 -679.30149956 908.89418117 -676.3125 908.9375 C-675.50425781 908.94652344 -674.69601562 908.95554687 -673.86328125 908.96484375 C-672.94095703 908.98224609 -672.94095703 908.98224609 -672 909 C-672 908.34 -672 907.68 -672 907 C-669.69 907 -667.38 907 -665 907 C-665 906.34 -665 905.68 -665 905 C-660.71 905 -656.42 905 -652 905 C-652 904.34 -652 903.68 -652 903 C-647.05 903 -642.1 903 -637 903 C-637 902.34 -637 901.68 -637 901 C-634.03 900.67 -631.06 900.34 -628 900 C-628.67877197 899.68885254 -629.35754395 899.37770508 -630.05688477 899.05712891 C-643.38813765 892.90771475 -656.19105619 886.7609074 -668 878 C-668.53995605 877.61650391 -669.07991211 877.23300781 -669.63623047 876.83789062 C-693.52405105 859.86552658 -712.91277071 836.55702421 -727 811 C-727.41668945 810.26330078 -727.83337891 809.52660156 -728.26269531 808.76757812 C-755.69592965 760.06408259 -767.79320232 702.38067099 -767.45410156 646.80908203 C-767.45296895 644.14457596 -767.45344044 641.48011359 -767.45587158 638.81561279 C-767.45793869 633.1520629 -767.44571324 627.48870159 -767.42292023 621.82519913 C-767.38999012 613.637415 -767.37995209 605.44971923 -767.37496826 597.26187609 C-767.36627868 583.9679898 -767.33983822 570.67420337 -767.30175781 557.38037109 C-767.2648715 544.48975107 -767.23664187 531.59915845 -767.21972656 518.70849609 C-767.21867567 517.90988899 -767.21762477 517.11128189 -767.21654204 516.28847457 C-767.21132075 512.28089454 -767.20626619 508.27331431 -767.20129442 504.26573396 C-767.16003043 471.17708336 -767.08975848 438.0885552 -767 405 C-766.34 405 -765.68 405 -765 405 C-763.86181641 406.58203125 -763.86181641 406.58203125 -762.6015625 408.8125 C-761.89181274 410.04299072 -761.89181274 410.04299072 -761.16772461 411.29833984 C-760.40407593 412.63566162 -760.40407593 412.63566162 -759.625 414 C-754.43738161 422.86273826 -748.78868086 431.08608584 -742.44824219 439.15478516 C-741.03813291 440.95141461 -739.64607696 442.76067962 -738.2578125 444.57421875 C-722.73862821 464.73819964 -705.40826475 484.68571598 -686.0390625 501.23828125 C-683.7730777 503.19605739 -681.57856506 505.22228948 -679.375 507.25 C-673.7807029 512.29082782 -667.90194921 516.91089712 -661.93896484 521.50244141 C-659.93752306 523.04825404 -657.94700943 524.60743442 -655.95703125 526.16796875 C-584.95322829 581.55675845 -499.28964983 611.49131599 -390 623 C-388.98824707 623.06171387 -387.97649414 623.12342773 -386.93408203 623.18701172 C-371.49758057 624.08054174 -356.13590664 624.00642285 -340.6875 623.625 C-339.81835968 623.60376068 -338.94921936 623.58252136 -338.05374146 623.56063843 C-329.96242227 623.35429806 -321.8926766 623.1001921 -313.8203125 622.48828125 C-304.07803339 621.78795453 -294.3210041 621.74968937 -284.55761719 621.61239624 C-186.62589674 620.16246902 -97.69486023 591.9238768 -24.47265625 525.25 C-22.72001762 523.65518191 -20.95576815 522.0730813 -19.18359375 520.5 C-14.46154081 516.28548744 -9.98565464 512.07686729 -5.91796875 507.2265625 C-3.9785767 504.97512977 -1.94896373 502.82613869 0.09960938 500.67431641 C7.1008844 493.27636223 13.30522815 485.39905932 19.35888672 477.21484375 C20.97815877 475.02947689 22.61536163 472.85843619 24.25390625 470.6875 C61.85840017 420.33706182 84.17186204 359.05355778 92 297 C92.11714355 296.12085938 92.23428711 295.24171875 92.35498047 294.3359375 C101.06235894 226.64350929 87.96910473 155.38667233 59 94 C58.54866699 93.04222656 58.09733398 92.08445312 57.63232422 91.09765625 C42.23976904 58.74832948 22.03749548 29.52639147 -2 3 C-1.34 2.67 -0.68 2.34 0 2 C0 1.34 0 0.68 0 0 Z " fill="#7FA948" transform="translate(767,422)"/>
<path d="M0 0 C3.30426227 1.90862164 6.61835746 3.7995298 9.93554688 5.68554688 C22.00897486 12.55391013 34.04216949 19.48697306 46.02905273 26.50561523 C53.69289916 30.98659282 61.39418399 35.39980928 69.10742188 39.79492188 C78.82353424 45.33185623 88.50638607 50.92235146 98.15893555 56.56958008 C108.75965017 62.76926645 119.40209031 68.89609795 130.04248047 75.02734375 C137.40360748 79.27256914 144.75525299 83.53420713 152.10742188 87.79492188 C148.38867187 89.84179687 148.38867187 89.84179687 145.85742188 89.41992188 C145.27992188 89.21367187 144.70242188 89.00742188 144.10742188 88.79492188 C143.77742187 89.45492187 143.44742188 90.11492187 143.10742188 90.79492188 C141.28899884 91.02822075 139.46910247 91.25225632 137.64550781 91.44091797 C93.2847532 97.6282106 46.49802684 120.77623528 7.79492188 141.79492188 C6.97056641 142.239729 6.14621094 142.68453613 5.296875 143.14282227 C1.31990127 145.34845729 -1.7515464 147.46288147 -4.89257812 150.79492188 C-6.95117188 152.04101562 -6.95117188 152.04101562 -9.33007812 153.23242188 C-22.62171343 160.28476561 -35.29354281 168.52855883 -47.64257812 177.10742188 C-48.43913818 177.65720703 -49.23569824 178.20699219 -50.05639648 178.7734375 C-54.11103118 181.6298114 -57.87071585 184.61541441 -61.53320312 187.96289062 C-64.0972858 190.2985211 -66.49332067 192.3000701 -69.54492188 193.95117188 C-73.3075953 196.02349609 -76.25884898 198.4571836 -79.45507812 201.29492188 C-80.5393994 202.24319787 -81.62405519 203.19109145 -82.70898438 204.13867188 C-83.33409912 204.68982666 -83.95921387 205.24098145 -84.60327148 205.80883789 C-86.34842881 207.32284608 -88.11338257 208.81406714 -89.88696289 210.29467773 C-98.89020449 217.82827981 -107.27911287 225.87161408 -115.5534668 234.19506836 C-117.71310367 236.36548749 -119.88331715 238.52492005 -122.0546875 240.68359375 C-129.46363464 248.08550536 -136.4298827 255.54476795 -142.89257812 263.79492188 C-143.81494882 264.88560286 -144.7446469 265.97018472 -145.68554688 267.04492188 C-166.74354111 291.2289805 -184.31300146 318.83482903 -199.89257812 346.79492188 C-200.34004395 347.5920459 -200.78750977 348.38916992 -201.24853516 349.21044922 C-218.00541629 379.27256393 -231.63443173 412.53494274 -240.97851562 445.64257812 C-241.89257812 448.79492188 -241.89257812 448.79492188 -242.95507812 450.85742188 C-244.20053782 453.43137192 -244.43310101 455.98062456 -244.89257812 458.79492188 C-245.53951463 460.46934577 -246.20217238 462.13794809 -246.89257812 463.79492188 C-246.89257812 464.45492187 -246.89257812 465.11492188 -246.89257812 465.79492188 C-247.55257812 465.79492188 -248.21257812 465.79492188 -248.89257812 465.79492188 C-248.56257812 467.11492188 -248.23257813 468.43492187 -247.89257812 469.79492188 C-248.55257812 469.79492188 -249.21257812 469.79492188 -249.89257812 469.79492188 C-249.56257812 471.11492188 -249.23257813 472.43492187 -248.89257812 473.79492188 C-249.55257812 473.79492188 -250.21257812 473.79492188 -250.89257812 473.79492188 C-250.56257812 475.11492188 -250.23257813 476.43492187 -249.89257812 477.79492188 C-250.55257812 477.79492188 -251.21257812 477.79492188 -251.89257812 477.79492188 C-251.68632812 478.53742187 -251.48007813 479.27992188 -251.26757812 480.04492188 C-250.8334506 483.22852372 -251.43057183 484.04291003 -252.89257812 486.79492188 C-252.93423178 488.46106795 -252.93423178 490.1287758 -252.89257812 491.79492188 C-253.18302727 493.13824916 -253.50213606 494.47717991 -253.89257812 495.79492188 C-254.55257812 495.79492188 -255.21257812 495.79492188 -255.89257812 495.79492188 C-255.56257812 497.44492187 -255.23257813 499.09492187 -254.89257812 500.79492188 C-255.55257812 500.79492188 -256.21257812 500.79492188 -256.89257812 500.79492188 C-256.70695313 501.76429688 -256.52132812 502.73367188 -256.33007812 503.73242188 C-256.11351562 505.24835938 -256.11351562 505.24835938 -255.89257812 506.79492188 C-256.22257813 507.12492188 -256.55257812 507.45492187 -256.89257812 507.79492188 C-256.89257812 509.11492188 -256.89257812 510.43492187 -256.89257812 511.79492188 C-257.55257812 511.79492188 -258.21257812 511.79492188 -258.89257812 511.79492188 C-258.71299561 512.65794922 -258.53341309 513.52097656 -258.34838867 514.41015625 C-257.88298085 517.86618952 -258.07261851 520.51605073 -258.59960938 523.95117188 C-258.77331055 525.12574951 -258.94701172 526.30032715 -259.12597656 527.51049805 C-259.31708008 528.75935791 -259.50818359 530.00821777 -259.70507812 531.29492188 C-260.08834511 533.94628993 -260.46139079 536.59906652 -260.83398438 539.25195312 C-261.01719238 540.55084473 -261.20040039 541.84973633 -261.38916016 543.18798828 C-263.59915239 559.02233614 -264.06987756 574.63554229 -264.08007812 590.60742188 C-264.08116577 591.53718842 -264.08225342 592.46695496 -264.08337402 593.42489624 C-264.08301721 596.11732866 -264.07380564 598.80955578 -264.06054688 601.50195312 C-264.05933334 602.30436432 -264.05811981 603.10677551 -264.05686951 603.9335022 C-264.01322912 609.28506704 -263.55594037 614.48372279 -262.89257812 619.79492188 C-262.23257813 618.47492187 -261.57257813 617.15492188 -260.89257812 615.79492188 C-260.84770264 616.84019043 -260.80282715 617.88545898 -260.7565918 618.96240234 C-258.19987068 677.47357311 -248.79549965 732.65241516 -222.89257812 785.79492188 C-222.19673349 787.25300137 -221.50137715 788.71131407 -220.80664062 790.16992188 C-207.0683981 818.65840662 -188.97335149 845.24795646 -167.89257812 868.79492188 C-167.04824219 869.75011719 -166.20390625 870.7053125 -165.33398438 871.68945312 C-153.73027976 884.6001199 -141.5896449 897.10658099 -127.89257812 907.79492188 C-126.03567066 909.37503995 -124.18166337 910.95857054 -122.33007812 912.54492188 C-62.62989823 962.09149061 12.47084015 987.09411173 89.10742188 991.79492188 C89.10742188 992.12492187 89.10742188 992.45492188 89.10742188 992.79492188 C9.92929651 997.50121813 -66.64573282 995.5904796 -202.89257812 947.79492188 C-203.77961426 947.38306641 -204.66665039 946.97121094 -205.58056641 946.546875 C-226.26617156 936.84759768 -246.18356087 924.88675812 -264.89257812 911.79492188 C-265.46685547 911.39644043 -266.04113281 910.99795898 -266.6328125 910.58740234 C-284.01404068 898.50754437 -300.26834888 885.06262889 -315.89257812 870.79492188 C-317.30990234 869.51681641 -317.30990234 869.51681641 -318.75585938 868.21289062 C-328.00356093 859.84858316 -337.1142801 851.27307714 -345.20117188 841.76367188 C-347.13125655 839.51710681 -349.13675952 837.34908283 -351.14257812 835.16992188 C-356.23469379 829.52450331 -360.88927804 823.57504343 -365.52832031 817.55761719 C-366.82984875 815.87597163 -368.14405478 814.20519813 -369.46289062 812.53710938 C-392.89257812 782.74904379 -392.89257812 782.74904379 -392.89257812 775.79492188 C-393.55257813 775.79492188 -394.21257812 775.79492188 -394.89257812 775.79492188 C-394.94398634 719.68356973 -394.99174118 663.57221528 -395.01960754 607.46084595 C-395.02002172 606.6290133 -395.02043589 605.79718065 -395.02086261 604.94014095 C-395.02984349 586.85769275 -395.03815372 568.7752443 -395.04577411 550.69279548 C-395.04951579 541.82384276 -395.05340549 532.95489012 -395.05737305 524.0859375 C-395.05776532 523.20341855 -395.0581576 522.32089961 -395.05856177 521.41163767 C-395.07132227 492.85974848 -395.09383853 464.30787723 -395.12146979 435.75599889 C-395.14983702 406.38995513 -395.16825051 377.02392128 -395.1743231 347.65786405 C-395.17518743 343.50029908 -395.17616434 339.34273415 -395.17720985 335.18516922 C-395.17741212 334.36698368 -395.17761439 333.54879813 -395.17782279 332.70581908 C-395.18135373 319.5899243 -395.19522925 306.47406034 -395.21307423 293.35817808 C-395.23083503 280.1392048 -395.23745748 266.92026177 -395.23308226 253.701277 C-395.23101586 246.55238675 -395.23367168 239.40357905 -395.25019455 232.25470543 C-395.43436894 149.2816878 -383.89862352 67.34767664 -323.08007812 5.66992188 C-316.46825191 -0.90394689 -309.43978033 -6.73971887 -301.89257812 -12.20507812 C-301.31991211 -12.62208984 -300.74724609 -13.03910156 -300.15722656 -13.46875 C-216.78838921 -73.41201948 -102.43797736 -55.58885831 0 0 Z " fill="#7FAA48" transform="translate(394.892578125,51.205078125)"/>
<path d="M0 0 C31.17913739 15.60207704 45.71735647 38.10844941 57.58203125 69.81640625 C57.82032654 70.45153137 58.05862183 71.08665649 58.30413818 71.74102783 C73.12785551 111.32795661 86.52589082 151.46938202 99.89453125 191.56640625 C100.29085754 192.75438812 100.68718384 193.94237 101.09552002 195.16635132 C105.71064665 209.01305692 110.24167908 222.88098221 114.58203125 236.81640625 C116.23763952 234.33299384 117.03797914 232.78774843 117.90380859 230.03979492 C118.14568909 229.28027527 118.38756958 228.52075562 118.63677979 227.73822021 C119.02346832 226.49881683 119.02346832 226.49881683 119.41796875 225.234375 C119.8307608 223.93104218 119.8307608 223.93104218 120.25189209 222.60137939 C121.15796963 219.73691333 122.05738144 216.87039688 122.95703125 214.00390625 C123.58919997 212.00318454 124.22185524 210.0026165 124.85498047 208.00219727 C127.5838823 199.3722691 130.29588961 190.73708135 132.99656677 182.09828186 C146.0819637 140.24204304 159.80958896 99.07442188 179.58203125 59.81640625 C179.98373535 59.00655273 180.38543945 58.19669922 180.79931641 57.36230469 C193.4820688 31.86710836 212.60082737 2.33359303 240.84521484 -7.40112305 C251.48984251 -10.44448002 262.54706965 -10.50352045 273.5246582 -10.44433594 C275.90927071 -10.43352694 278.29314322 -10.44434596 280.67773438 -10.45703125 C288.20728987 -10.46290523 295.2920985 -10.29759036 302.58203125 -8.18359375 C300.47930991 0.02547626 297.88888723 7.99433503 295.07421875 15.984375 C294.6318113 17.24877278 294.18972174 18.51328183 293.7479248 19.77789307 C292.56738891 23.15386377 291.38208757 26.52814214 290.19567108 29.90205002 C289.19903796 32.73804592 288.20512211 35.57499101 287.21119118 38.41193485 C284.00964497 47.54963738 280.79798953 56.68376725 277.58203125 65.81640625 C277.17629883 66.96874756 276.77056641 68.12108887 276.35253906 69.30834961 C271.48773251 83.11996259 266.59531921 96.92167082 261.68499756 110.71716309 C260.53371081 113.95218266 259.38327319 117.18750342 258.23291016 120.42285156 C185.66362504 324.46708363 185.66362504 324.46708363 168.58203125 343.81640625 C167.81375 344.69425781 167.04546875 345.57210938 166.25390625 346.4765625 C156.18260193 357.24636051 142.24358627 365.86238137 127.23291016 366.9934082 C104.62666007 367.564825 86.9277602 363.29950659 69.58203125 347.81640625 C68.834375 347.15125 68.08671875 346.48609375 67.31640625 345.80078125 C58.45368165 337.43387341 51.93348357 327.13835288 45.58203125 316.81640625 C44.98777344 317.9765625 44.39351562 319.13671875 43.78125 320.33203125 C38.4086907 330.55623422 32.81678293 338.70972225 24.58203125 346.81640625 C23.99035156 347.47769531 23.39867187 348.13898438 22.7890625 348.8203125 C14.02436112 358.49394587 -0.1960102 366.25998739 -13.3671875 367.0546875 C-35.06021138 367.56717567 -53.79126441 361.82659279 -71.41796875 348.81640625 C-72.11921875 348.30078125 -72.82046875 347.78515625 -73.54296875 347.25390625 C-82.27956478 340.32488181 -85.74495539 329.77393555 -89.79296875 319.75390625 C-90.41061888 318.23848176 -91.02837877 316.72310201 -91.64624023 315.20776367 C-98.06443562 299.40858313 -104.16768118 283.48863006 -110.23388672 267.55175781 C-112.67630132 261.1352044 -115.12718796 254.7218957 -117.578125 248.30859375 C-120.3181032 241.1383224 -123.05727851 233.9677492 -125.79248047 226.7956543 C-131.38615273 212.12534395 -131.38615273 212.12534395 -137.015625 197.46875 C-145.98474742 174.19246655 -154.56654522 150.77715164 -163.1270752 127.34796143 C-164.68564577 123.08411026 -166.24627574 118.82101464 -167.80700397 114.55795288 C-178.26596295 85.98845215 -188.67576468 57.40153172 -198.998703 28.78257751 C-199.72583846 26.76674278 -200.45318495 24.75098428 -201.18054199 22.73522949 C-202.52778891 19.00099367 -203.87345634 15.26618999 -205.21875 11.53125 C-205.81551292 9.87641853 -205.81551292 9.87641853 -206.42433167 8.18815613 C-208.14204848 3.41404932 -209.84859211 -1.3580593 -211.41796875 -6.18359375 C-207.89830041 -9.70326209 -197.29616918 -8.30854991 -192.73046875 -8.37109375 C-160.2870443 -8.26429668 -134.09537118 5.13900382 -111.41796875 27.81640625 C-108.22066884 31.3464333 -105.28788573 35.01694093 -102.41796875 38.81640625 C-101.61746094 39.863125 -100.81695312 40.90984375 -99.9921875 41.98828125 C-83.07388252 64.58349256 -71.6259038 91.30726868 -62.41796875 117.81640625 C-62.0926416 118.74453125 -61.76731445 119.67265625 -61.43212891 120.62890625 C-52.97313186 145.04981207 -46.77630041 170.32989988 -40.890625 195.4765625 C-40.58986809 196.76043098 -40.58986809 196.76043098 -40.28303528 198.07023621 C-39.33932077 202.11272778 -38.40846045 206.15758804 -37.49829102 210.20776367 C-34.94099308 225.83711966 -34.94099308 225.83711966 -27.26220703 238.19433594 C-26.6536084 238.39961914 -26.04500977 238.60490234 -25.41796875 238.81640625 C-25.17304688 238.18347656 -24.928125 237.55054688 -24.67578125 236.8984375 C-23.66997866 234.43390879 -22.62109107 232.007468 -21.53515625 229.578125 C-15.6258642 216.26464255 -10.66143031 202.7522892 -6.41796875 188.81640625 C-6.08901611 187.78314209 -6.08901611 187.78314209 -5.75341797 186.72900391 C-2.65215092 176.03600877 -4.88718698 166.87716457 -8.65234375 156.671875 C-9.10618089 155.40507434 -9.55876492 154.13782415 -10.01019287 152.87016296 C-11.45270738 148.84226731 -12.93298745 144.82880055 -14.41796875 140.81640625 C-14.90284649 139.50038117 -15.38762914 138.18432106 -15.87231445 136.8682251 C-19.146223 127.99487206 -22.48644316 119.14706557 -25.84273148 110.30460358 C-27.25805763 106.57316606 -28.66861859 102.83992725 -30.07983398 99.10693359 C-32.67794733 92.23649499 -35.28040217 85.36771043 -37.88470173 78.49961472 C-40.31592327 72.08730895 -42.74254082 65.67326792 -45.16830444 59.25889587 C-47.13984115 54.0457241 -49.11315081 48.83322407 -51.08703613 43.62094116 C-51.99879401 41.21332927 -52.91034212 38.80563793 -53.82165527 36.39785767 C-55.09327614 33.03945679 -56.36637801 29.68162406 -57.640625 26.32421875 C-58.0378476 25.2774144 -58.43507019 24.23061005 -58.84432983 23.15208435 C-60.87829943 17.80792842 -62.93817383 12.4752355 -65.03466797 7.15527344 C-65.6655558 5.55424271 -65.6655558 5.55424271 -66.30918884 3.92086792 C-67.11081676 1.89229706 -67.915645 -0.13501295 -68.72413635 -2.16085815 C-69.07870407 -3.0566861 -69.43327179 -3.95251404 -69.79858398 -4.87548828 C-70.26928566 -6.05572067 -70.26928566 -6.05572067 -70.74949646 -7.25979614 C-71.41796875 -9.18359375 -71.41796875 -9.18359375 -71.41796875 -11.18359375 C-50.91187506 -18.01895831 -18.63420615 -8.93904209 0 0 Z " fill="#146D9C" transform="translate(452.41796875,497.18359375)"/>
<path d="M0 0 C0.8616479 -0.00003063 1.7232958 -0.00006125 2.61105424 -0.0000928 C89.37017326 -0.00165188 176.12226362 0.10022186 306.26565742 3.11208344 C313.28482294 3.30751798 320.3041269 3.48446805 327.32421875 3.64306641 C347.73429035 4.10716944 368.11889876 4.81852212 388.51171875 5.77606201 C394.19823019 6.04228876 399.88506842 6.30149438 405.57191467 6.56045532 C406.96396645 6.62395707 408.35600564 6.68773561 409.74803162 6.75180054 C420.68169466 7.25445484 431.61697324 7.6762704 442.55731201 8.00793457 C448.77964188 8.20962659 454.95682564 8.58048499 461.15686035 9.1486969 C465.80607644 9.53577488 470.46327378 9.66003176 475.125 9.8125 C495.17021924 10.54828682 515.18995429 11.88713178 535.1875 13.4375 C536.23099609 13.51669678 537.27449219 13.59589355 538.34960938 13.67749023 C539.30287109 13.75427002 540.25613281 13.8310498 541.23828125 13.91015625 C542.06626221 13.975979 542.89424316 14.04180176 543.74731445 14.10961914 C545.875 14.375 545.875 14.375 548.875 15.375 C551.15661529 15.59407107 553.44293753 15.76537579 555.73046875 15.91015625 C556.39210526 15.95313339 557.05374176 15.99611053 557.73542786 16.04039001 C559.8442317 16.17650665 561.95333734 16.30707347 564.0625 16.4375 C565.49416404 16.52893101 566.92580503 16.62072364 568.35742188 16.71289062 C571.86302377 16.93778709 575.36891758 17.15770829 578.875 17.375 C578.875 18.035 578.875 18.695 578.875 19.375 C584.155 19.375 589.435 19.375 594.875 19.375 C594.875 20.035 594.875 20.695 594.875 21.375 C598.175 21.375 601.475 21.375 604.875 21.375 C604.875 22.035 604.875 22.695 604.875 23.375 C608.505 23.375 612.135 23.375 615.875 23.375 C615.875 24.035 615.875 24.695 615.875 25.375 C619.505 25.705 623.135 26.035 626.875 26.375 C626.875 27.035 626.875 27.695 626.875 28.375 C627.865 28.375 628.855 28.375 629.875 28.375 C629.875 29.035 629.875 29.695 629.875 30.375 C630.865 30.375 631.855 30.375 632.875 30.375 C632.875 31.035 632.875 31.695 632.875 32.375 C634.525 32.705 636.175 33.035 637.875 33.375 C638.205 35.355 638.535 37.335 638.875 39.375 C639.535 39.375 640.195 39.375 640.875 39.375 C641.99756131 41.62012262 642.00913762 42.88956649 642 45.375 C642.00257812 46.07625 642.00515625 46.7775 642.0078125 47.5 C641.875 49.375 641.875 49.375 640.875 51.375 C640.215 51.375 639.555 51.375 638.875 51.375 C638.545 53.355 638.215 55.335 637.875 57.375 C636.225 57.705 634.575 58.035 632.875 58.375 C632.875 59.035 632.875 59.695 632.875 60.375 C631.885 60.375 630.895 60.375 629.875 60.375 C629.875 61.035 629.875 61.695 629.875 62.375 C628.885 62.375 627.895 62.375 626.875 62.375 C626.875 63.035 626.875 63.695 626.875 64.375 C623.245 64.705 619.615 65.035 615.875 65.375 C615.875 66.035 615.875 66.695 615.875 67.375 C612.245 67.375 608.615 67.375 604.875 67.375 C604.875 68.035 604.875 68.695 604.875 69.375 C601.575 69.375 598.275 69.375 594.875 69.375 C594.875 70.035 594.875 70.695 594.875 71.375 C589.595 71.375 584.315 71.375 578.875 71.375 C578.875 72.035 578.875 72.695 578.875 73.375 C577.98192139 73.43034912 577.08884277 73.48569824 576.16870117 73.54272461 C572.85305339 73.75012795 569.53767492 73.9611251 566.22241211 74.17456055 C564.78793313 74.26617133 563.35336205 74.35635171 561.91870117 74.44506836 C559.85569752 74.57289032 557.79308058 74.70586511 555.73046875 74.83984375 C554.48934326 74.918396 553.24821777 74.99694824 551.96948242 75.07788086 C548.84189729 75.26152949 548.84189729 75.26152949 545.875 76.375 C544.33362281 76.56725209 542.78671644 76.71674639 541.23828125 76.83984375 C540.28501953 76.91662354 539.33175781 76.99340332 538.34960938 77.07250977 C537.30611328 77.15170654 536.26261719 77.23090332 535.1875 77.3125 C534.09115234 77.39749756 532.99480469 77.48249512 531.86523438 77.57006836 C511.99718147 79.07845581 492.10751134 80.38206334 472.19140625 81.03344727 C467.6333164 81.18880057 463.1086347 81.42427441 458.56689453 81.84545898 C450.8171444 82.50351749 443.05871102 82.79454871 435.2890625 83.09375 C433.69980919 83.15694148 432.1105658 83.22038272 430.52133179 83.28405762 C426.35756934 83.45030503 422.19369574 83.61357235 418.02978516 83.77606201 C411.40523759 84.03514307 404.78088478 84.29917158 398.15650558 84.56251526 C395.88509827 84.65244763 393.61365205 84.74132586 391.3421936 84.82995605 C389.88649101 84.88718822 388.43079236 84.94452069 386.97509766 85.00195312 C385.8779286 85.04498314 385.8779286 85.04498314 384.75859451 85.08888245 C380.82796982 85.24603252 376.89884028 85.42007504 372.97000122 85.61706543 C357.52357426 86.38372391 342.07361491 86.73861347 326.61264086 87.04924965 C322.83924516 87.12562511 319.06591339 87.2050516 315.29257202 87.28405762 C308.92685508 87.41692416 302.56109977 87.54779462 296.1953125 87.67724609 C288.21987079 87.83943817 280.24449775 88.0047688 272.26914406 88.1712265 C265.21127452 88.318513 258.15337468 88.46432977 251.09546995 88.60991859 C248.93246569 88.65457954 246.76946483 88.69940191 244.60646439 88.74424744 C236.61234007 88.90961031 228.61812378 89.06909386 220.62376541 89.22273803 C216.06377128 89.31094196 211.50389532 89.40334188 206.94408226 89.50048065 C168.98732048 90.30696488 131.04373572 90.55131471 93.08036089 90.57487273 C88.29014324 90.57795632 83.49992861 90.58295811 78.70971298 90.58826637 C57.27661509 90.61161907 35.8435302 90.62149968 14.41042034 90.62387899 C8.19737654 90.62460663 1.98433335 90.62618038 -4.22871017 90.62812424 C-173.46401675 90.67884638 -173.46401675 90.67884638 -254.6875 88.9375 C-255.87448557 88.9121263 -255.87448557 88.9121263 -257.08545065 88.88624001 C-274.16243682 88.51973721 -291.2378025 88.10550836 -308.31233788 87.63791466 C-315.49505993 87.44191007 -322.67791967 87.2650794 -329.86157227 87.10693359 C-350.53269428 86.64900881 -371.17712245 85.94683884 -391.8303833 84.97393799 C-397.50723935 84.70738573 -403.1844519 84.44847242 -408.86166 84.18954468 C-410.2496678 84.12608873 -411.63766093 84.0623112 -413.02563858 83.99819946 C-424.03698357 83.48989685 -435.04940115 83.0686084 -446.06782532 82.74206543 C-451.46808339 82.56866511 -456.78166116 82.2560657 -462.14460754 81.59899902 C-465.03112465 81.27250969 -467.90986098 81.17603229 -470.8125 81.09375 C-472.60300781 81.03767578 -472.60300781 81.03767578 -474.4296875 80.98046875 C-475.64914062 80.94566406 -476.86859375 80.91085937 -478.125 80.875 C-485.07338555 80.67668456 -491.95010212 80.47283046 -498.85009766 79.61132812 C-504.70716833 79.00286661 -510.62339236 78.96381456 -516.50585938 78.76953125 C-521.47869989 78.58778913 -526.22136982 78.25903474 -531.125 77.375 C-534.57226967 77.13142452 -538.01550553 76.93849746 -541.46679688 76.76953125 C-544.56481661 76.60049537 -547.16504167 76.36165278 -550.125 75.375 C-552.4795956 75.155435 -554.83882789 74.98435748 -557.19921875 74.83984375 C-557.8830513 74.79686661 -558.56688385 74.75388947 -559.2714386 74.70960999 C-561.45157778 74.57346319 -563.63201096 74.44291145 -565.8125 74.3125 C-567.29234054 74.22107191 -568.77215861 74.12927934 -570.25195312 74.03710938 C-573.87605107 73.81217931 -577.50043355 73.59226526 -581.125 73.375 C-581.125 72.715 -581.125 72.055 -581.125 71.375 C-586.075 71.375 -591.025 71.375 -596.125 71.375 C-596.125 70.715 -596.125 70.055 -596.125 69.375 C-600.415 69.375 -604.705 69.375 -609.125 69.375 C-609.125 68.715 -609.125 68.055 -609.125 67.375 C-611.435 67.375 -613.745 67.375 -616.125 67.375 C-616.125 66.715 -616.125 66.055 -616.125 65.375 C-616.73988281 65.38660156 -617.35476563 65.39820313 -617.98828125 65.41015625 C-618.79652344 65.41917969 -619.60476563 65.42820312 -620.4375 65.4375 C-621.23800781 65.44910156 -622.03851562 65.46070313 -622.86328125 65.47265625 C-625.125 65.375 -625.125 65.375 -628.125 64.375 C-628.125 63.715 -628.125 63.055 -628.125 62.375 C-629.445 62.375 -630.765 62.375 -632.125 62.375 C-632.125 61.715 -632.125 61.055 -632.125 60.375 C-633.115 60.375 -634.105 60.375 -635.125 60.375 C-635.125 59.715 -635.125 59.055 -635.125 58.375 C-636.775 58.045 -638.425 57.715 -640.125 57.375 C-640.455 56.055 -640.785 54.735 -641.125 53.375 C-641.785 53.375 -642.445 53.375 -643.125 53.375 C-644.79269477 48.37191568 -644.79269477 42.37808432 -643.125 37.375 C-642.465 37.375 -641.805 37.375 -641.125 37.375 C-640.795 36.055 -640.465 34.735 -640.125 33.375 C-637.65 32.88 -637.65 32.88 -635.125 32.375 C-635.125 31.715 -635.125 31.055 -635.125 30.375 C-634.135 30.375 -633.145 30.375 -632.125 30.375 C-632.125 29.715 -632.125 29.055 -632.125 28.375 C-630.805 28.375 -629.485 28.375 -628.125 28.375 C-628.125 27.715 -628.125 27.055 -628.125 26.375 C-625.24288698 25.41429566 -623.42649956 25.26918117 -620.4375 25.3125 C-619.22513672 25.32603516 -619.22513672 25.32603516 -617.98828125 25.33984375 C-617.37339844 25.35144531 -616.75851562 25.36304688 -616.125 25.375 C-616.125 24.715 -616.125 24.055 -616.125 23.375 C-613.815 23.375 -611.505 23.375 -609.125 23.375 C-609.125 22.715 -609.125 22.055 -609.125 21.375 C-604.835 21.375 -600.545 21.375 -596.125 21.375 C-596.125 20.715 -596.125 20.055 -596.125 19.375 C-591.175 19.375 -586.225 19.375 -581.125 19.375 C-581.125 18.715 -581.125 18.055 -581.125 17.375 C-571.37983547 15.62627553 -564.49124058 16.78908018 -555.31079102 19.97021484 C-548.37794649 22.3675601 -541.56702764 23.91895354 -534.31420898 25.02636719 C-532.68916527 25.28515635 -531.06940224 25.5775729 -529.45336914 25.88769531 C-520.25785189 27.53631444 -511.24297143 27.6809979 -501.93334961 27.63574219 C-499.32707223 27.62505973 -496.72149044 27.63567497 -494.11523438 27.6484375 C-483.61023665 27.65751787 -473.51476018 26.94121651 -463.125 25.375 C-462.12170654 25.23964844 -461.11841309 25.10429688 -460.0847168 24.96484375 C-441.8014389 22.47989347 -423.4097621 18.33937343 -406.25276184 11.44070435 C-390.03667405 5.14337738 -374.58176219 4.10592436 -357.40181565 3.99578047 C-353.60239564 3.96262999 -349.80386226 3.88468202 -346.00505066 3.8109436 C-340.50808568 3.70773989 -335.01120785 3.61721273 -329.51375586 3.54433334 C-320.50314905 3.42470514 -311.49846599 3.22310726 -302.49072266 2.95996094 C-285.9743832 2.48107244 -269.45718148 2.09110427 -252.9375 1.75 C-252.15756589 1.73385871 -251.37763178 1.71771742 -250.5740633 1.701087 C-167.06054687 -0.01651328 -83.52760753 0.00223608 0 0 Z " fill="#EFEEEE" transform="translate(711.125,1305.625)"/>
<path d="M0 0 C2.3846125 0.010809 4.76848502 -0.00001002 7.15307617 -0.01269531 C14.68263167 -0.01856929 21.7674403 0.14674558 29.05737305 2.26074219 C26.95465171 10.4698122 24.36422903 18.43867096 21.54956055 26.42871094 C21.1071531 27.69310872 20.66506353 28.95761777 20.2232666 30.222229 C19.04273071 33.59819971 17.85742937 36.97247808 16.67101288 40.34638596 C15.67437976 43.18238186 14.68046391 46.01932695 13.68653297 48.85627079 C10.48498677 57.99397332 7.27333132 67.12810319 4.05737305 76.26074219 C3.44877441 77.98925415 3.44877441 77.98925415 2.82788086 79.75268555 C-2.0369257 93.56429853 -6.92933899 107.36600676 -11.83966064 121.16149902 C-12.9909474 124.39651859 -14.14138501 127.63183935 -15.29174805 130.8671875 C-87.86103316 334.91141956 -87.86103316 334.91141956 -104.94262695 354.26074219 C-105.7109082 355.13859375 -106.47918945 356.01644531 -107.27075195 356.92089844 C-117.24873623 367.59090421 -131.51885583 376.71558284 -146.52978516 377.37426758 C-147.42528076 377.36903076 -148.32077637 377.36379395 -149.2434082 377.35839844 C-150.21987305 377.35517578 -151.19633789 377.35195313 -152.20239258 377.34863281 C-153.20979492 377.34025391 -154.21719727 377.331875 -155.25512695 377.32324219 C-156.28186523 377.31873047 -157.30860352 377.31421875 -158.36645508 377.30957031 C-160.89190578 377.29782403 -163.417236 377.28139783 -165.94262695 377.26074219 C-164.62262695 376.93074219 -163.30262695 376.60074219 -161.94262695 376.26074219 C-162.27262695 330.72074219 -162.60262695 285.18074219 -162.94262695 238.26074219 C-160.9516485 241.24720987 -160.00137769 243.8576148 -158.94262695 247.26074219 C-157.28701868 244.77732978 -156.48667906 243.23208437 -155.62084961 240.48413086 C-155.37896912 239.72461121 -155.13708862 238.96509155 -154.88787842 238.18255615 C-154.63008606 237.35628723 -154.3722937 236.53001831 -154.10668945 235.67871094 C-153.6938974 234.37537811 -153.6938974 234.37537811 -153.27276611 233.04571533 C-152.36668857 230.18124926 -151.46727676 227.31473282 -150.56762695 224.44824219 C-149.93545823 222.44752047 -149.30280297 220.44695244 -148.66967773 218.4465332 C-145.9407759 209.81660504 -143.22876859 201.18141729 -140.52809143 192.5426178 C-127.4426945 150.68637898 -113.71506924 109.51875782 -93.94262695 70.26074219 C-93.54092285 69.45088867 -93.13921875 68.64103516 -92.7253418 67.80664062 C-80.04258941 42.3114443 -60.92383084 12.77792896 -32.67944336 3.04321289 C-22.0348157 -0.00014408 -10.97758855 -0.05918451 0 0 Z " fill="#2692C2" transform="translate(725.942626953125,486.7392578125)"/>
<path d="M0 0 C0.99348953 0.04152821 1.98697906 0.08305641 3.01057434 0.12584305 C50.08451634 2.10341422 97.28773693 4.54368576 144.12533569 9.82498169 C146.15586987 10.0519771 148.18790157 10.2654547 150.2199707 10.47827148 C159.47441065 11.57776769 167.74674513 13.96389644 176.4375 17.1875 C176.4375 17.8475 176.4375 18.5075 176.4375 19.1875 C166.96917578 22.64011092 158.0095129 25.10835576 147.9375 26.1875 C147.26557617 26.26299072 146.59365234 26.33848145 145.90136719 26.41625977 C140.0857847 27.06791538 134.26334755 27.6361517 128.4375 28.1875 C127.43154785 28.28353516 126.4255957 28.37957031 125.38916016 28.47851562 C78.10081897 32.95534744 30.71039748 35.00977081 -16.73905087 36.91038227 C-21.42232668 37.09857346 -26.104968 37.29714601 -30.78735352 37.5065918 C-45.77467714 38.16913407 -60.74801519 38.46798677 -75.75 38.5 C-77.03867981 38.50328308 -78.32735962 38.50656616 -79.65509033 38.50994873 C-106.60849312 38.5479638 -133.5136619 37.48888142 -160.4375 36.3125 C-161.44214169 36.26880405 -162.44678337 36.22510811 -163.48186874 36.18008804 C-197.04435968 34.71555675 -230.5750132 32.96617431 -264.0625 30.25 C-265.12860504 30.16412628 -266.19471008 30.07825256 -267.29312134 29.98977661 C-321.61878696 25.59194845 -321.61878696 25.59194845 -336.5625 19.1875 C-336.5625 18.5275 -336.5625 17.8675 -336.5625 17.1875 C-330.33328703 14.48451552 -324.10638919 12.75539744 -317.41015625 11.67578125 C-316.63008713 11.54844604 -315.85001801 11.42111084 -315.04631042 11.28991699 C-305.86262837 9.84608349 -296.63209025 8.99957345 -287.375 8.1875 C-285.48989096 8.01793971 -283.60480017 7.84817643 -281.71972656 7.67822266 C-276.00186671 7.16687229 -270.2825469 6.67371598 -264.5625 6.1875 C-263.69792175 6.11382202 -262.83334351 6.04014404 -261.94256592 5.9642334 C-237.96796567 3.93034652 -213.98902581 2.40879063 -189.95288086 1.3404541 C-186.85306426 1.20060856 -183.75346712 1.05658021 -180.65392303 0.91083241 C-120.29895955 -1.92591713 -60.381525 -2.5356526 0 0 Z " fill="#C5C4C4" transform="translate(790.5625,1332.8125)"/>
<path d="M0 0 C1.94795975 0.15308624 1.94795975 0.15308624 3.93527222 0.30926514 C18.77283156 1.50780843 32.89021084 3.02590361 47.0625 7.75 C47.0625 8.41 47.0625 9.07 47.0625 9.75 C35.10454644 15.15036612 21.13939392 15.13563818 8.27441406 16.34570312 C5.50893254 16.60755981 2.74576808 16.88489898 -0.01660156 17.17773438 C-38.0632313 21.19649686 -76.45418432 21.12311585 -114.5625 17.9375 C-115.55068726 17.85490936 -116.53887451 17.77231873 -117.55700684 17.68722534 C-127.80588228 16.80589436 -138.01821708 15.68991217 -148.2109375 14.30078125 C-149.04267487 14.19138718 -149.87441223 14.0819931 -150.73135376 13.96928406 C-156.66345995 13.11962506 -162.24354621 11.60647844 -167.9375 9.75 C-167.9375 9.09 -167.9375 8.43 -167.9375 7.75 C-166.48120667 7.28522553 -165.02229415 6.82865911 -163.5625 6.375 C-162.75039063 6.11976562 -161.93828125 5.86453125 -161.1015625 5.6015625 C-152.74709358 3.3530758 -144.37284935 2.24594381 -135.76953125 1.4609375 C-134.01875275 1.29803223 -134.01875275 1.29803223 -132.23260498 1.13183594 C-87.98148781 -2.89370713 -44.321407 -3.54358846 0 0 Z " fill="#B4B3B3" transform="translate(770.9375,1342.25)"/>
<path d="M0 0 C4.96214369 -0.04980918 9.92413861 -0.08591147 14.88647461 -0.10986328 C16.57107075 -0.11985897 18.25564981 -0.13346004 19.94018555 -0.15087891 C22.37553141 -0.17541276 24.81064592 -0.18654758 27.24609375 -0.1953125 C27.98709824 -0.20563507 28.72810272 -0.21595764 29.49156189 -0.22659302 C34.88086107 -0.22772363 39.78900152 0.64898444 45 2 C42.32603789 12.80459932 38.52250215 23.20648969 34.8125 33.6875 C34.15133896 35.56432855 33.49052871 37.4412807 32.83007812 39.31835938 C31.22409461 43.88034208 29.61336681 48.44062347 28 53 C27.67 53 27.34 53 27 53 C27 35.84 27 18.68 27 1 C18.09 1 9.18 1 0 1 C0 0.67 0 0.34 0 0 Z " fill="#43AEDA" transform="translate(710,487)"/>
<path d="M0 0 C0.67740234 -0.01224609 1.35480469 -0.02449219 2.05273438 -0.03710938 C7.83052536 -0.05372814 12.63916286 1.37972095 18.0625 3.1875 C18.0625 3.8475 18.0625 4.5075 18.0625 5.1875 C12.51144791 8.39003005 6.4531379 8.38167267 0.1875 8.375 C-0.51850342 8.37491943 -1.22450684 8.37483887 -1.9519043 8.37475586 C-8.17655065 8.30647952 -13.07506803 7.14164399 -18.9375 5.1875 C-18.9375 4.5275 -18.9375 3.8675 -18.9375 3.1875 C-12.72773242 0.44789666 -6.72500192 0.00636235 0 0 Z " fill="#ABAAAA" transform="translate(710.9375,1346.8125)"/>
<path d="M0 0 C0.66 0.33 1.32 0.66 2 1 C-6.91 9.91 -15.82 18.82 -25 28 C-25.66 27.67 -26.32 27.34 -27 27 C-9.06818182 7.15909091 -9.06818182 7.15909091 0 0 Z " fill="#9EBB89" transform="translate(85,45)"/>
<path d="M0 0 C0.99 0.33 1.98 0.66 3 1 C3 2.98 3 4.96 3 7 C1.35 5.35 -0.3 3.7 -2 2 C-1.34 2 -0.68 2 0 2 C0 1.34 0 0.68 0 0 Z " fill="#A1C175" transform="translate(767,422)"/>
</svg>
